<?xml version="1.0" encoding="utf-8"?>
<!-- Svg Vector Icons : http://www.sfont.cn -->
<!DOCTYPE svg PUBLIC "-//W3C//DTD SVG 1.1//EN" "http://www.w3.org/Graphics/SVG/1.1/DTD/svg11.dtd">
<svg version="1.1" xmlns="http://www.w3.org/2000/svg" xmlns:xlink="http://www.w3.org/1999/xlink" x="0px" y="0px" viewBox="0 0 1000 1000" enable-background="new 0 0 1000 1000" xml:space="preserve">
<metadata> Svg Vector Icons : http://www.sfont.cn </metadata>
<g><g><path d="M957.3,934.7L686.6,664.1c67.7-67.7,112.8-166.9,112.8-270.7C799.4,181.4,628,10,416,10S32.6,181.4,32.6,393.4c0,212,171.4,383.4,383.4,383.4c81.2,0,157.9-27.1,221-72.2l275.2,275.2c13.5,13.5,31.6,13.5,45.1,0C970.8,966.3,970.8,948.3,957.3,934.7z M416,731.7c-185,0-338.3-153.4-338.3-338.3S231,55.1,416,55.1c184.9,0,338.3,153.4,338.3,338.3S600.9,731.7,416,731.7z"/></g><g></g><g></g><g></g><g></g><g></g><g></g><g></g><g></g><g></g><g></g><g></g><g></g><g></g><g></g><g></g></g>
</svg>