<?xml version="1.0" encoding="utf-8"?>
<!-- Svg Vector Icons : http://www.sfont.cn -->
<!DOCTYPE svg PUBLIC "-//W3C//DTD SVG 1.1//EN" "http://www.w3.org/Graphics/SVG/1.1/DTD/svg11.dtd">
<svg version="1.1" xmlns="http://www.w3.org/2000/svg" xmlns:xlink="http://www.w3.org/1999/xlink" x="0px" y="0px" viewBox="0 0 1000 1000" enable-background="new 0 0 1000 1000" xml:space="preserve">
<metadata> Svg Vector Icons : http://www.sfont.cn </metadata>
<g><path d="M726.1,537.8c-9.7,0-19.3-3.7-26.7-11.1L247.2,74.5c-14.8-14.8-14.8-38.7,0-53.5c14.8-14.8,38.7-14.8,53.5,0l452.2,452.2c14.8,14.8,14.8,38.7,0,53.5C745.4,534.1,735.8,537.8,726.1,537.8z"/><path d="M273.9,990c-9.7,0-19.4-3.7-26.7-11.1c-14.8-14.8-14.8-38.7,0-53.5l452.2-452.2c14.8-14.8,38.7-14.8,53.5,0c14.8,14.8,14.8,38.7,0,53.5L300.6,978.9C293.3,986.3,283.6,990,273.9,990z"/></g>
</svg>