<?xml version="1.0" encoding="utf-8"?>
<!-- Svg Vector Icons : http://www.sfont.cn -->
<!DOCTYPE svg PUBLIC "-//W3C//DTD SVG 1.1//EN" "http://www.w3.org/Graphics/SVG/1.1/DTD/svg11.dtd">
<svg version="1.1" xmlns="http://www.w3.org/2000/svg" xmlns:xlink="http://www.w3.org/1999/xlink" x="0px" y="0px" viewBox="0 0 1000 1000" enable-background="new 0 0 1000 1000" xml:space="preserve">
<metadata> Svg Vector Icons : http://www.sfont.cn </metadata>
<g><path fill="#EB4F38" d="M908.3,108c22.5,0,41.7,8,57.7,24c16,16,24,35.2,24,57.7v620.7c0,22.5-8,41.7-24,57.7c-16,16-35.2,24-57.7,24H91.7c-22.5,0-41.7-8-57.7-24c-16-16-24-35.2-24-57.7V189.7c0-22.5,8-41.7,24-57.7c16-16,35.2-24,57.7-24H908.3z M91.7,173.3c-4.4,0-8.3,1.6-11.5,4.8c-3.2,3.2-4.9,7.1-4.8,11.5V304h849.3V189.7c0-4.4-1.6-8.3-4.8-11.5c-3.2-3.2-7.1-4.9-11.5-4.8H91.7L91.7,173.3z M908.3,826.7c4.4,0,8.3-1.6,11.5-4.8c3.2-3.2,4.9-7.1,4.8-11.5V500H75.3v310.3c0,4.4,1.6,8.3,4.8,11.5s7.1,4.9,11.5,4.8H908.3z M140.7,761.3V696h130.7v65.3H140.7z M336.7,761.3V696h196v65.3H336.7L336.7,761.3z"/></g>
</svg>