<?xml version="1.0" encoding="utf-8"?>
<!-- Svg Vector Icons : http://www.sfont.cn -->
<!DOCTYPE svg PUBLIC "-//W3C//DTD SVG 1.1//EN" "http://www.w3.org/Graphics/SVG/1.1/DTD/svg11.dtd">
<svg version="1.1" xmlns="http://www.w3.org/2000/svg" xmlns:xlink="http://www.w3.org/1999/xlink" x="0px" y="0px" viewBox="0 0 1000 1000" enable-background="new 0 0 1000 1000" xml:space="preserve">
<metadata> Svg Vector Icons : http://www.sfont.cn </metadata>
<g><path d="M852.9,438.8h-96.3V247.3C756.7,116.3,645.3,10,508,10h-16c-137.3,0-248.6,106.3-248.6,237.3v191.4h-96.3c-17.7,0-32.1,13.7-32.1,30.6v490c0,16.9,14.4,30.6,32.1,30.6h705.8c17.7,0,32.1-13.7,32.1-30.6v-490C885,452.5,870.6,438.8,852.9,438.8z M596.3,836.9H419.8l35.1-78.2c-21.3-15.4-35.1-39.8-35.1-67.2c0-46.5,39.5-84.2,88.2-84.2c48.7,0,88.2,37.7,88.2,84.2c0,27.5-13.8,51.9-35.1,67.2L596.3,836.9z M628.3,438.8H371.7V239.7c0-67.7,57.5-122.5,128.3-122.5h16c70.9,0,112.3,54.8,112.3,122.5V438.8z"/></g>
</svg>