<?xml version="1.0" encoding="utf-8"?>
<!-- Svg Vector Icons : http://www.sfont.cn -->
<!DOCTYPE svg PUBLIC "-//W3C//DTD SVG 1.1//EN" "http://www.w3.org/Graphics/SVG/1.1/DTD/svg11.dtd">
<svg version="1.1" xmlns="http://www.w3.org/2000/svg" xmlns:xlink="http://www.w3.org/1999/xlink" x="0px" y="0px" viewBox="0 0 1000 1000" enable-background="new 0 0 1000 1000" xml:space="preserve">
<metadata> Svg Vector Icons : http://www.sfont.cn </metadata>
<g><path d="M781.8,990H218.2c-56.6,0-102.5-46.2-102.5-103.2V371h102.5v-77.4C218.2,137,344.3,10,500,10c155.6,0,281.8,127,281.8,283.7V371h102.5v515.8C884.3,943.8,838.4,990,781.8,990z M695.4,309.6c0-108.5-87.4-196.4-195.1-196.4h-0.5c-107.8,0-195.1,87.9-195.1,196.4V371h390.7V309.6z M781.8,474.2H218.2v361c0,28.5,23,51.6,51.2,51.6h461.2c28.3,0,51.2-23.1,51.2-51.6V474.2z M538.7,705.2v78.5h-77.4v-78.5c-23.1-12-38.7-34-38.7-59.4c0-38.1,34.7-68.9,77.4-68.9c42.7,0,77.4,30.9,77.4,68.9C577.4,671.3,561.7,693.2,538.7,705.2z"/></g>
</svg>