<?xml version="1.0" encoding="utf-8"?>
<!-- Svg Vector Icons : http://www.sfont.cn -->
<!DOCTYPE svg PUBLIC "-//W3C//DTD SVG 1.1//EN" "http://www.w3.org/Graphics/SVG/1.1/DTD/svg11.dtd">
<svg version="1.1" xmlns="http://www.w3.org/2000/svg" xmlns:xlink="http://www.w3.org/1999/xlink" x="0px" y="0px" viewBox="0 0 1000 1000" enable-background="new 0 0 1000 1000" xml:space="preserve">
<metadata> Svg Vector Icons : http://www.sfont.cn </metadata>
<g><path d="M679.7,10H320.3c-44.9,0-81.7,36.7-81.7,81.7v816.7c0,44.9,36.7,81.7,81.7,81.7h359.3c44.9,0,81.7-36.7,81.7-81.7V91.7C761.3,46.7,724.6,10,679.7,10z M451.1,75.3h98c9,0,16.3,7.3,16.3,16.3c0,9-7.3,16.3-16.3,16.3h-98c-9,0-16.3-7.3-16.3-16.3C434.7,82.7,442,75.3,451.1,75.3z M500,957.3c-27,0-49-21.9-49-49c0-27.1,21.9-49,49-49c27.1,0,49,21.9,49,49C549,935.5,527.1,957.3,500,957.3z M728.7,826.7H271.4V173.3h457.3V826.7z"/></g>
</svg>