<?xml version="1.0" encoding="utf-8"?>
<!-- Svg Vector Icons : http://www.sfont.cn -->
<!DOCTYPE svg PUBLIC "-//W3C//DTD SVG 1.1//EN" "http://www.w3.org/Graphics/SVG/1.1/DTD/svg11.dtd">
<svg version="1.1" xmlns="http://www.w3.org/2000/svg" xmlns:xlink="http://www.w3.org/1999/xlink" x="0px" y="0px" viewBox="0 0 1000 1000" enable-background="new 0 0 1000 1000" xml:space="preserve">
<metadata> Svg Vector Icons : http://www.sfont.cn </metadata>
<g><g transform="translate(0.000000,512.000000) scale(0.100000,-0.100000)"><path d="M4683.9,5006.4c-812.2-111.1-1532.4-630.2-1900.2-1367.7c-162.8-325.6-233.7-614.9-249-1007.6c-21.1-567,103.4-1021,404.2-1473c386.9-580.4,973.1-963.5,1655-1082.3c218.4-38.3,635.9-38.3,856.2,0c1216.4,212.6,2103.3,1314,2053.5,2547.7c-26.8,653.2-270.1,1210.6-729.8,1668.4c-356.3,356.3-772,582.3-1275.8,689.6C5323.7,5017.9,4869.8,5033.2,4683.9,5006.4z M6905.9,2640.7c47.9-438.6-136-973.1-467.4-1363.8c-208.8-247.1-603.4-492.3-940.5-582.3c-141.7-38.3-206.9-44.1-498-42.1c-310.3,0-348.6,3.8-505.7,53.6c-649.4,199.2-1143.6,703-1314.1,1342.8c-44,164.7-70.9,530.6-49.8,647.4l13.4,70.9h1875.3h1873.4L6905.9,2640.7z"/><path d="M3726.2,20.3c-431-166.7-846.7-442.5-1187.6-787.3c-423.3-431-720.2-976.9-856.2-1576.5c-40.2-176.2-42.1-239.4-47.9-1312.1l-7.7-1124.4H5000h3373.2l-7.6,1126.3c-5.8,1070.8-7.7,1134-47.9,1310.2C8120.4-1473.8,7584.1-721,6835.1-263.2C6563.1-96.5,6157,85.4,6130.2,52.9c-7.6-7.7-30.6-61.3-53.6-114.9c-130.3-327.5-442.5-595.7-798.8-685.8c-145.6-36.4-409.9-36.4-555.5,0c-360.1,91.9-670.4,360.1-806.4,699.2c-24.9,57.5-49.8,107.3-59.4,109.2C3848.8,62.5,3789.4,45.2,3726.2,20.3z"/></g></g>
</svg>