<?xml version="1.0" encoding="utf-8"?>
<!-- Svg Vector Icons : http://www.sfont.cn -->
<!DOCTYPE svg PUBLIC "-//W3C//DTD SVG 1.1//EN" "http://www.w3.org/Graphics/SVG/1.1/DTD/svg11.dtd">
<svg version="1.1" xmlns="http://www.w3.org/2000/svg" xmlns:xlink="http://www.w3.org/1999/xlink" x="0px" y="0px" viewBox="0 0 1000 1000" enable-background="new 0 0 1000 1000" xml:space="preserve">
<metadata> Svg Vector Icons : http://www.sfont.cn </metadata>
<g><path fill="#3381FF" d="M990,772.2c0,29.8-24.7,54.4-54.4,54.4H64.4C34.7,826.7,10,802,10,772.2V227.8c0-29.8,24.7-54.4,54.4-54.4h871.1c29.8,0,54.4,24.7,54.4,54.4V772.2L990,772.2z M211.2,386.9c-3.4-17.4-16.6-23-31.9-23h-114l-0.9,5.5c78.3,20,142.5,62.5,171.4,142.9L211.2,386.9z M243.1,550.2l-7.2-37.9c-14.9-39.6-51-76.1-91.9-92.7l57.4,216.9h74.4l111-272.6H312L243.1,550.2z M441.7,637L486,363.9h-70.6L371.1,637H441.7z M634.4,359.2c-69.8,0-118.7,37-119.1,90.2c-0.4,39.1,34.9,60.8,61.7,74c27.6,13.2,36.6,22.1,36.6,34c0,18.3-22.1,26.4-42.1,26.4c-28.5,0-43.8-3.4-66.4-14l-9.4-4.7l-9.8,61.2c16.6,7.7,46.8,14.5,78.7,14.5c74,0.4,122.1-36.6,122.9-93.2c0-31-19.1-54.4-59.5-74c-24.7-12.3-39.6-21.3-39.6-34c0-11.5,12.8-23.4,40.4-23.4c23-0.4,40,4.3,52.7,10.2l6.4,3.4l9.8-59.1C683.8,365.2,661.6,359.2,634.4,359.2z M824.1,363.9c-17,0-29.8,5.1-37,23L682.5,637h74c11.9-33.6,14.9-40.8,14.9-40.8c8.1,0,80,0,90.2,0c0,0,2.1,9.4,8.5,40.8h65.5l-57-273.1L824.1,363.9L824.1,363.9z M791.4,540c0,0,6-15.7,28.1-76.1c-0.4,0.4,6-15.7,9.4-25.9l5.1,23.4c13.2,65.1,16.2,78.7,16.2,78.7C839,540,805.4,540,791.4,540z"/></g>
</svg>