<?xml version="1.0" encoding="utf-8"?>
<!-- Svg Vector Icons : http://www.sfont.cn -->
<!DOCTYPE svg PUBLIC "-//W3C//DTD SVG 1.1//EN" "http://www.w3.org/Graphics/SVG/1.1/DTD/svg11.dtd">
<svg version="1.1" xmlns="http://www.w3.org/2000/svg" xmlns:xlink="http://www.w3.org/1999/xlink" x="0px" y="0px" viewBox="0 0 1000 1000" enable-background="new 0 0 1000 1000" xml:space="preserve">
<metadata> Svg Vector Icons : http://www.sfont.cn </metadata>
<g><path fill="#11CD6E" d="M868.5,844l26.1,95.4l-95.1-57.4c-34.7,9.6-69.5,19.2-104.1,19.2c-165,0-295-124.2-295-277.1c0-152.7,130-277.1,295-277.1C851.2,347,990,471.5,990,624.1C990,710.3,938.1,786.5,868.5,844z M599.7,499.9c-17.3,0-34.7,19.2-34.7,38.2c0,19.3,17.4,38.2,34.7,38.2c26.2,0,43.4-18.9,43.4-38.2C643.1,519.1,626,499.9,599.7,499.9z M790.5,499.9c-17.2,0-34.5,19.2-34.5,38.2c0,19.3,17.3,38.2,34.5,38.2c26,0,43.4-18.9,43.4-38.2C833.9,519.1,816.5,499.9,790.5,499.9z M378.5,628.7c0,27.7,3.9,54.5,10.7,80c-10.7,0.9-21.5,1.5-32.4,1.5c-43.3,0-78.1-9.7-121.5-19.2L114.1,758l34.7-114.9C62,576.3,10,490.2,10,385.3C10,203.6,166.2,60.5,356.9,60.5c170.6,0,320,114.3,350,268.2c-11-1.4-22.2-2.3-33.4-2.3C508.7,326.5,378.5,461.9,378.5,628.7z M244.2,222.9c-26,0-52.2,18.9-52.2,47.7c0,28.6,26.2,47.8,52.2,47.8c26,0,43.3-19.2,43.3-47.8C287.5,241.9,270.2,222.9,244.2,222.9z M486.9,222.9c-26,0-52.1,18.9-52.1,47.7c0,28.6,26.1,47.8,52.1,47.8c26.1,0,43.4-19.2,43.4-47.8C530.4,241.9,513,222.9,486.9,222.9z"/></g>
</svg>