<?xml version="1.0" encoding="utf-8"?>
<!-- Svg Vector Icons : http://www.sfont.cn -->
<!DOCTYPE svg PUBLIC "-//W3C//DTD SVG 1.1//EN" "http://www.w3.org/Graphics/SVG/1.1/DTD/svg11.dtd">
<svg version="1.1" xmlns="http://www.w3.org/2000/svg" xmlns:xlink="http://www.w3.org/1999/xlink" x="0px" y="0px" viewBox="0 0 1000 1000" enable-background="new 0 0 1000 1000" xml:space="preserve">
<metadata> Svg Vector Icons : http://www.sfont.cn </metadata>
<g><path  fill="#EA8010" d="M990,680.9V198.4C990,94.4,905.6,10,801.5,10H198.4C94.4,10,10,94.4,10,198.4v603.2C10,905.6,94.3,990,198.4,990h603.1c92.7,0,169.8-67,185.5-155.2c-50-21.6-266.6-115.2-379.4-169c-85.9,104-175.8,166.4-311.3,166.4c-135.5,0-226-83.5-215.2-185.6c7.2-67.1,53.2-176.7,253-157.9c105.3,9.9,153.5,29.5,239.4,57.9c22.2-40.7,40.7-85.6,54.7-133.3H247.4v-37.7h188.4v-67.7H206v-41.5h229.8v-97.8c0,0,2.1-15.3,19-15.3H549v113.1h245v41.5H549v67.7h199.9c-18.4,74.8-46.2,143.5-81.2,203.5C725.8,600.1,990,680.9,990,680.9L990,680.9L990,680.9L990,680.9z M281.3,767.6c-143.2,0-165.9-90.4-158.3-128.2c7.5-37.6,49-86.7,128.6-86.7c91.5,0,173.5,23.4,271.8,71.3C454.4,714,369.5,767.6,281.3,767.6L281.3,767.6L281.3,767.6z"/></g>
</svg>